<?xml version="1.0" encoding="UTF-8"?>
<svg id="Camada_1" xmlns="http://www.w3.org/2000/svg" xmlns:ev="http://www.w3.org/2001/xml-events" version="1.1" viewBox="0 0 639.41 430.68">
  <!-- Generator: Adobe Illustrator 30.2.1, SVG Export Plug-In . SVG Version: 2.1.1 Build 1)  -->
  <defs>
    <style>
      .st0 {
        fill: none;
        stroke: #fff;
        stroke-miterlimit: 10;
      }

      .st1 {
        fill: #1d1d1b;
      }

      .st2 {
        fill: #fff;
      }
    </style>
  </defs>
  <path class="st0" d="M-4761.84-162.2"/>
  <g>
    <path class="st2" d="M-85.08-746.9s6.44-17.59,24.69-27.08l111.96-55.98s20.7-9.47,20.7-35.01v-23.56l-141.36,71.78s-15.99,9.25-15.99,33.47v36.39Z"/>
    <path class="st2" d="M-33.09-773.27v49.54l49.71-24.77v15.91s.33,19.16-20.48,28.57l-54.33,27.58s-8.75-10.9-5.61-30.05c0,0-28.4,19.65-12.88,43.27,0,0,8.59,14.7,25.6,18.66,0,0-32.2,7.43-54.5-30.55,0,0-15.03-23.78,12.28-57.47,0,0,9.69-12.55,37.93-29.23l22.29-11.45Z"/>
    <path class="st2" d="M-19.44-780.7v27.08l60.61-30.39v45.74s.66,23.61-22.79,35.34l-68.53,35.17s23.28,25.43,50.2,11.89l52.84-27.91s19.38-9.91,19.38-39.63v-104.2l-91.71,46.9Z"/>
    <path class="st2" d="M196.75-756.28c0,2.67-.5,5.16-1.51,7.49s-2.5,4.29-4.48,5.89c-2.1,1.71-4.63,3.04-7.59,3.98-2.96.94-6.63,1.41-11,1.41-2.96,0-5.75-.1-8.37-.3-2.62-.2-12.19-1.74-14.17-2.11l.13-13.46,6.74,2.56c1.38.49,4.38,1.3,5.88,1.71,2.01.54,3.72.44,6.05.44,3.02,0,5.41-.67,7.04-1.43,1.62-.76,2.78-1.82,3.47-3.19.66-1.33,1.04-2.8,1.12-4.39s.13-3.63.13-6.1v-24.21h-14.71v-11.18h31.27v42.91Z"/>
    <path class="st2" d="M261.52-766.92c1.66,1.14,2.98,2.47,3.96,4s1.47,3.55,1.47,6.08c0,2.85-.7,5.52-2.11,7.99-1.4,2.48-3.56,4.59-6.47,6.36-2.84,1.71-6.18,3.02-10.02,3.94-3.84.91-8.5,1.37-13.98,1.37-6.26,0-11.63-.39-16.11-1.18-4.48-.79-8.13-1.67-10.94-2.65v-13.34h1.98c2.91,1.41,6.39,2.64,10.43,3.67,4.04,1.03,7.74,1.55,11.09,1.55,1.96,0,4.09-.13,6.39-.39,2.3-.26,4.25-.82,5.84-1.69,1.25-.68,2.25-1.5,2.99-2.47s1.12-2.36,1.12-4.18-.51-3.13-1.52-4.1c-1.02-.97-2.35-1.65-4.01-2.06-1.66-.43-3.65-.67-5.99-.71-2.33-.04-4.5-.06-6.5-.06h-9.82v-10.85h9.98c2.64,0,4.97-.07,7-.2,2.03-.14,3.76-.45,5.18-.94,1.49-.52,2.61-1.2,3.35-2.06.74-.86,1.12-2.11,1.12-3.77,0-1.22-.39-2.21-1.17-2.96-.78-.75-1.76-1.34-2.94-1.77-1.32-.49-2.88-.82-4.67-.98-1.79-.16-3.33-.24-4.62-.24-3.18,0-6.63.44-10.35,1.33-3.72.88-7.33,2.16-10.81,3.81h-1.88v-13.17c2.77-.9,6.55-1.76,11.32-2.59s9.61-1.24,14.52-1.24,8.95.33,12.54,1c3.59.67,6.55,1.56,8.88,2.67,2.77,1.33,4.84,2.95,6.19,4.85s2.03,4.13,2.03,6.69c0,3.37-1.3,6.38-3.91,9.03-2.61,2.65-6.04,4.34-10.3,5.08v.57c1.73.19,3.55.57,5.48,1.14,1.93.57,3.69,1.4,5.28,2.49Z"/>
    <path class="st2" d="M342.89-768.76c0,5.66-1.29,10.72-3.88,15.19-2.58,4.47-5.85,7.91-9.79,10.3-2.96,1.79-6.21,3.05-9.75,3.75-3.54.71-7.72,1.06-12.56,1.06h-28.69v-60.73h29.31c4.95,0,9.22.42,12.81,1.24,3.59.83,6.61,2.01,9.06,3.53,4.19,2.56,7.48,6,9.89,10.34,2.41,4.34,3.61,9.44,3.61,15.32ZM326.55-768.88c0-4-.73-7.42-2.18-10.26-1.46-2.84-3.76-5.06-6.91-6.67-1.61-.79-3.24-1.33-4.92-1.61s-4.19-.43-7.57-.43h-11.09v38.01h3.96c3.72,0,13.59-.17,15.33-.51,1.74-.34,3.44-.96,5.1-1.86,2.86-1.63,4.95-3.81,6.28-6.55s2-6.11,2-10.14Z"/>
    <path class="st2" d="M446.44-738.46h-55.01v-60.73h15.66v48.99h39.35v11.75Z"/>
    <path class="st2" d="M484.17-743.31c-.89.6-1.99,1.32-3.31,2.16-1.32.84-2.56,1.51-3.73,2-1.63.65-3.31,1.14-5.06,1.45s-3.66.47-5.75.47c-4.91,0-9.02-1.35-12.33-4.04-3.31-2.69-4.97-6.13-4.97-10.32,0-3.34.84-6.08,2.53-8.2,1.69-2.12,4.08-3.79,7.18-5.02,3.07-1.22,6.87-2.09,11.41-2.61,4.54-.52,9.25-.9,14.12-1.14v-.25c0-2.53-1.17-4.28-3.5-5.24-2.33-.96-5.77-1.45-10.3-1.45-2.73,0-5.64.43-8.74,1.28-3.1.86-5.32,1.52-6.67,1.98h-1.52v-11.05c1.75-.41,4.59-.89,8.53-1.45,3.94-.56,7.89-.84,11.84-.84,9.41,0,16.21,1.28,20.4,3.85,4.18,2.57,6.28,6.6,6.28,12.09v31.16h-16.42v-4.85ZM484.17-750.44v-9.51c-2.24.16-4.66.39-7.27.67-2.61.28-4.58.62-5.93,1-1.66.46-2.92,1.13-3.79,2.01s-1.31,2.04-1.31,3.48c0,.95.09,1.72.28,2.32.19.6.64,1.16,1.38,1.71.71.54,1.55.94,2.53,1.2s2.51.39,4.6.39c1.65,0,3.33-.3,5.04-.89,1.7-.6,3.2-1.38,4.48-2.36Z"/>
    <path class="st2" d="M561.51-761.99c0,7.21-2.09,13.08-6.27,17.62-4.18,4.54-9.4,6.81-15.66,6.81-2.68,0-5.04-.27-7.07-.82-2.03-.54-3.96-1.33-5.78-2.37l-.64,2.28h-14.84v-63.47h15.48v22.43c2.37-1.79,4.79-3.25,7.26-4.36,2.47-1.11,5.32-1.67,8.55-1.67,6.08,0,10.76,2.09,14.05,6.26,3.28,4.18,4.93,9.93,4.93,17.27ZM545.6-761.68c0-4.07-.73-7.21-2.18-9.41-1.45-2.2-4.05-3.3-7.79-3.3-1.46,0-2.95.21-4.49.63-1.54.42-3.01,1.02-4.41,1.81v22.97c1.11.38,2.17.64,3.17.77,1,.14,2.2.2,3.59.2,4.08,0,7.12-1.14,9.11-3.42,2-2.28,3-5.7,3-10.26Z"/>
    <path class="st2" d="M607.17-729.53h-45.17v-11.43h45.17v11.43Z"/>
    <path class="st2" d="M388.06-729.53h-45.17v-11.43h45.17v11.43Z"/>
    <path class="st2" d="M109.29-836.54v154.96s-5.71,0-5.71,0v-154.96s5.71,0,5.71,0Z"/>
    <path class="st2" d="M671.69-780.02c0,2.72-.57,5.38-1.71,7.97-1.14,2.6-2.77,4.78-4.89,6.55-2.9,2.39-6.14,4.2-9.71,5.42-3.57,1.22-8.01,1.84-13.33,1.84h-11.69v19.78h-18.78v-60.73h30.91c4.63,0,8.53.33,11.71,1,3.18.67,5.99,1.67,8.44,3,2.93,1.61,5.18,3.66,6.73,6.16,1.55,2.5,2.32,5.51,2.32,9.01ZM652.27-779.67c0-1.71-.55-3.18-1.66-4.41-1.11-1.24-2.4-2.1-3.86-2.58-1.96-.65-3.87-1.01-5.72-1.08-1.86-.07-4.34-.1-7.43-.1h-3.23v18.15h5.38c3.2,0,5.83-.16,7.9-.49,2.07-.32,3.81-.98,5.21-1.95,1.21-.87,2.08-1.91,2.62-3.11.54-1.21.81-2.68.81-4.42Z"/>
    <path class="st2" d="M734.33-787.44h-24.54v48.99h-15.66v-48.99h-21.33v-11.75h61.54v11.75Z"/>
  </g>
  <g>
    <path class="st1" d="M-1057.41-746.9s6.44-17.59,24.69-27.08l111.96-55.98s20.7-9.47,20.7-35.01v-23.56l-141.36,71.78s-15.99,9.25-15.99,33.47v36.39Z"/>
    <path class="st1" d="M-1005.42-773.27v49.54l49.71-24.77v15.91s.33,19.16-20.48,28.57l-54.33,27.58s-8.75-10.9-5.61-30.05c0,0-28.4,19.65-12.88,43.27,0,0,8.59,14.7,25.6,18.66,0,0-32.2,7.43-54.5-30.55,0,0-15.03-23.78,12.28-57.47,0,0,9.69-12.55,37.93-29.23l22.29-11.45Z"/>
    <path class="st1" d="M-991.77-780.7v27.08l60.61-30.39v45.74s.66,23.61-22.79,35.34l-68.53,35.17s23.28,25.43,50.2,11.89l52.84-27.91s19.38-9.91,19.38-39.63v-104.2l-91.71,46.9Z"/>
    <path class="st1" d="M-775.57-756.28c0,2.67-.5,5.16-1.51,7.49s-2.5,4.29-4.48,5.89c-2.1,1.71-4.63,3.04-7.59,3.98-2.96.94-6.63,1.41-11,1.41-2.96,0-5.75-.1-8.37-.3-2.62-.2-12.19-1.74-14.17-2.11l.13-13.46,6.74,2.56c1.38.49,4.38,1.3,5.88,1.71,2.01.54,3.72.44,6.05.44,3.02,0,5.41-.67,7.04-1.43,1.62-.76,2.78-1.82,3.47-3.19.66-1.33,1.04-2.8,1.12-4.39s.13-3.63.13-6.1v-24.21h-14.71v-11.18h31.27v42.91Z"/>
    <path class="st1" d="M-710.8-766.92c1.66,1.14,2.98,2.47,3.96,4s1.47,3.55,1.47,6.08c0,2.85-.7,5.52-2.11,7.99-1.4,2.48-3.56,4.59-6.47,6.36-2.84,1.71-6.18,3.02-10.02,3.94-3.84.91-8.5,1.37-13.98,1.37-6.26,0-11.63-.39-16.11-1.18-4.48-.79-8.13-1.67-10.94-2.65v-13.34h1.98c2.91,1.41,6.39,2.64,10.43,3.67,4.04,1.03,7.74,1.55,11.09,1.55,1.96,0,4.09-.13,6.39-.39,2.3-.26,4.25-.82,5.84-1.69,1.25-.68,2.25-1.5,2.99-2.47s1.12-2.36,1.12-4.18-.51-3.13-1.52-4.1c-1.02-.97-2.35-1.65-4.01-2.06-1.66-.43-3.65-.67-5.99-.71-2.33-.04-4.5-.06-6.5-.06h-9.82v-10.85h9.98c2.64,0,4.97-.07,7-.2,2.03-.14,3.76-.45,5.18-.94,1.49-.52,2.61-1.2,3.35-2.06.74-.86,1.12-2.11,1.12-3.77,0-1.22-.39-2.21-1.17-2.96-.78-.75-1.76-1.34-2.94-1.77-1.32-.49-2.88-.82-4.67-.98-1.79-.16-3.33-.24-4.62-.24-3.18,0-6.63.44-10.35,1.33-3.72.88-7.33,2.16-10.81,3.81h-1.88v-13.17c2.77-.9,6.55-1.76,11.32-2.59s9.61-1.24,14.52-1.24,8.95.33,12.54,1c3.59.67,6.55,1.56,8.88,2.67,2.77,1.33,4.84,2.95,6.19,4.85s2.03,4.13,2.03,6.69c0,3.37-1.3,6.38-3.91,9.03-2.61,2.65-6.04,4.34-10.3,5.08v.57c1.73.19,3.55.57,5.48,1.14,1.93.57,3.69,1.4,5.28,2.49Z"/>
    <path class="st1" d="M-629.44-768.76c0,5.66-1.29,10.72-3.88,15.19-2.58,4.47-5.85,7.91-9.79,10.3-2.96,1.79-6.21,3.05-9.75,3.75-3.54.71-7.72,1.06-12.56,1.06h-28.69v-60.73h29.31c4.95,0,9.22.42,12.81,1.24,3.59.83,6.61,2.01,9.06,3.53,4.19,2.56,7.48,6,9.89,10.34,2.41,4.34,3.61,9.44,3.61,15.32ZM-645.78-768.88c0-4-.73-7.42-2.18-10.26-1.46-2.84-3.76-5.06-6.91-6.67-1.61-.79-3.24-1.33-4.92-1.61s-4.19-.43-7.57-.43h-11.09v38.01h3.96c3.72,0,13.59-.17,15.33-.51,1.74-.34,3.44-.96,5.1-1.86,2.86-1.63,4.95-3.81,6.28-6.55s2-6.11,2-10.14Z"/>
    <path class="st1" d="M-525.89-738.46h-55.01v-60.73h15.66v48.99h39.35v11.75Z"/>
    <path class="st1" d="M-488.16-743.31c-.89.6-1.99,1.32-3.31,2.16-1.32.84-2.56,1.51-3.73,2-1.63.65-3.31,1.14-5.06,1.45s-3.66.47-5.75.47c-4.91,0-9.02-1.35-12.33-4.04-3.31-2.69-4.97-6.13-4.97-10.32,0-3.34.84-6.08,2.53-8.2,1.69-2.12,4.08-3.79,7.18-5.02,3.07-1.22,6.87-2.09,11.41-2.61,4.54-.52,9.25-.9,14.12-1.14v-.25c0-2.53-1.17-4.28-3.5-5.24-2.33-.96-5.77-1.45-10.3-1.45-2.73,0-5.64.43-8.74,1.28-3.1.86-5.32,1.52-6.67,1.98h-1.52v-11.05c1.75-.41,4.59-.89,8.53-1.45,3.94-.56,7.89-.84,11.84-.84,9.41,0,16.21,1.28,20.4,3.85,4.18,2.57,6.28,6.6,6.28,12.09v31.16h-16.42v-4.85ZM-488.16-750.44v-9.51c-2.24.16-4.66.39-7.27.67-2.61.28-4.58.62-5.93,1-1.66.46-2.92,1.13-3.79,2.01s-1.31,2.04-1.31,3.48c0,.95.09,1.72.28,2.32.19.6.64,1.16,1.38,1.71.71.54,1.55.94,2.53,1.2s2.51.39,4.6.39c1.65,0,3.33-.3,5.04-.89,1.7-.6,3.2-1.38,4.48-2.36Z"/>
    <path class="st1" d="M-410.81-761.99c0,7.21-2.09,13.08-6.27,17.62-4.18,4.54-9.4,6.81-15.66,6.81-2.68,0-5.04-.27-7.07-.82-2.03-.54-3.96-1.33-5.78-2.37l-.64,2.28h-14.84v-63.47h15.48v22.43c2.37-1.79,4.79-3.25,7.26-4.36,2.47-1.11,5.32-1.67,8.55-1.67,6.08,0,10.76,2.09,14.05,6.26,3.28,4.18,4.93,9.93,4.93,17.27ZM-426.73-761.68c0-4.07-.73-7.21-2.18-9.41-1.45-2.2-4.05-3.3-7.79-3.3-1.46,0-2.95.21-4.49.63-1.54.42-3.01,1.02-4.41,1.81v22.97c1.11.38,2.17.64,3.17.77,1,.14,2.2.2,3.59.2,4.08,0,7.12-1.14,9.11-3.42,2-2.28,3-5.7,3-10.26Z"/>
    <path class="st1" d="M-365.15-729.53h-45.17v-11.43h45.17v11.43Z"/>
    <path class="st1" d="M-584.26-729.53h-45.17v-11.43h45.17v11.43Z"/>
    <path class="st1" d="M-863.03-836.54v154.96s-5.71,0-5.71,0v-154.96s5.71,0,5.71,0Z"/>
    <path class="st1" d="M-300.64-780.02c0,2.72-.57,5.38-1.71,7.97-1.14,2.6-2.77,4.78-4.89,6.55-2.9,2.39-6.14,4.2-9.71,5.42-3.57,1.22-8.01,1.84-13.33,1.84h-11.69v19.78h-18.78v-60.73h30.91c4.63,0,8.53.33,11.71,1,3.18.67,5.99,1.67,8.44,3,2.93,1.61,5.18,3.66,6.73,6.16,1.55,2.5,2.32,5.51,2.32,9.01ZM-320.06-779.67c0-1.71-.55-3.18-1.66-4.41-1.11-1.24-2.4-2.1-3.86-2.58-1.96-.65-3.87-1.01-5.72-1.08-1.86-.07-4.34-.1-7.43-.1h-3.23v18.15h5.38c3.2,0,5.83-.16,7.9-.49,2.07-.32,3.81-.98,5.21-1.95,1.21-.87,2.08-1.91,2.62-3.11.54-1.21.81-2.68.81-4.42Z"/>
    <path class="st1" d="M-238-787.44h-24.54v48.99h-15.66v-48.99h-21.33v-11.75h61.54v11.75Z"/>
  </g>
  <g>
    <path class="st1" d="M-2753.7-746.9s6.44-17.59,24.69-27.08l111.96-55.98s20.7-9.47,20.7-35.01v-23.56l-141.36,71.78s-15.99,9.25-15.99,33.47v36.39Z"/>
    <path class="st1" d="M-2701.71-773.27v49.54l49.71-24.77v15.91s.33,19.16-20.48,28.57l-54.33,27.58s-8.75-10.9-5.61-30.05c0,0-28.4,19.65-12.88,43.27,0,0,8.59,14.7,25.6,18.66,0,0-32.2,7.43-54.5-30.55,0,0-15.03-23.78,12.28-57.47,0,0,9.69-12.55,37.93-29.23l22.29-11.45Z"/>
    <path class="st1" d="M-2688.06-780.7v27.08l60.61-30.39v45.74s.66,23.61-22.79,35.34l-68.53,35.17s23.28,25.43,50.2,11.89l52.84-27.91s19.38-9.91,19.38-39.63v-104.2l-91.71,46.9Z"/>
    <path class="st1" d="M-2471.87-756.28c0,2.67-.5,5.16-1.51,7.49s-2.5,4.29-4.48,5.89c-2.1,1.71-4.63,3.04-7.59,3.98-2.96.94-6.63,1.41-11,1.41-2.96,0-5.75-.1-8.37-.3-2.62-.2-12.19-1.74-14.17-2.11l.13-13.46,6.74,2.56c1.38.49,4.38,1.3,5.88,1.71,2.01.54,3.72.44,6.05.44,3.02,0,5.41-.67,7.04-1.43,1.62-.76,2.78-1.82,3.47-3.19.66-1.33,1.04-2.8,1.12-4.39s.13-3.63.13-6.1v-24.21h-14.71v-11.18h31.27v42.91Z"/>
    <path class="st1" d="M-2407.09-766.92c1.66,1.14,2.98,2.47,3.96,4s1.47,3.55,1.47,6.08c0,2.85-.7,5.52-2.11,7.99-1.4,2.48-3.56,4.59-6.47,6.36-2.84,1.71-6.18,3.02-10.02,3.94-3.84.91-8.5,1.37-13.98,1.37-6.26,0-11.63-.39-16.11-1.18-4.48-.79-8.13-1.67-10.94-2.65v-13.34h1.98c2.91,1.41,6.39,2.64,10.43,3.67,4.04,1.03,7.74,1.55,11.09,1.55,1.96,0,4.09-.13,6.39-.39,2.3-.26,4.25-.82,5.84-1.69,1.25-.68,2.25-1.5,2.99-2.47s1.12-2.36,1.12-4.18-.51-3.13-1.52-4.1c-1.02-.97-2.35-1.65-4.01-2.06-1.66-.43-3.65-.67-5.99-.71-2.33-.04-4.5-.06-6.5-.06h-9.82v-10.85h9.98c2.64,0,4.97-.07,7-.2,2.03-.14,3.76-.45,5.18-.94,1.49-.52,2.61-1.2,3.35-2.06.74-.86,1.12-2.11,1.12-3.77,0-1.22-.39-2.21-1.17-2.96-.78-.75-1.76-1.34-2.94-1.77-1.32-.49-2.88-.82-4.67-.98-1.79-.16-3.33-.24-4.62-.24-3.18,0-6.63.44-10.35,1.33-3.72.88-7.33,2.16-10.81,3.81h-1.88v-13.17c2.77-.9,6.55-1.76,11.32-2.59s9.61-1.24,14.52-1.24,8.95.33,12.54,1c3.59.67,6.55,1.56,8.88,2.67,2.77,1.33,4.84,2.95,6.19,4.85s2.03,4.13,2.03,6.69c0,3.37-1.3,6.38-3.91,9.03-2.61,2.65-6.04,4.34-10.3,5.08v.57c1.73.19,3.55.57,5.48,1.14,1.93.57,3.69,1.4,5.28,2.49Z"/>
    <path class="st1" d="M-2325.73-768.76c0,5.66-1.29,10.72-3.88,15.19-2.58,4.47-5.85,7.91-9.79,10.3-2.96,1.79-6.21,3.05-9.75,3.75-3.54.71-7.72,1.06-12.56,1.06h-28.69v-60.73h29.31c4.95,0,9.22.42,12.81,1.24,3.59.83,6.61,2.01,9.06,3.53,4.19,2.56,7.48,6,9.89,10.34,2.41,4.34,3.61,9.44,3.61,15.32ZM-2342.07-768.88c0-4-.73-7.42-2.18-10.26-1.46-2.84-3.76-5.06-6.91-6.67-1.61-.79-3.24-1.33-4.92-1.61s-4.19-.43-7.57-.43h-11.09v38.01h3.96c3.72,0,13.59-.17,15.33-.51,1.74-.34,3.44-.96,5.1-1.86,2.86-1.63,4.95-3.81,6.28-6.55s2-6.11,2-10.14Z"/>
    <path class="st1" d="M-2222.18-738.46h-55.01v-60.73h15.66v48.99h39.35v11.75Z"/>
    <path class="st1" d="M-2184.45-743.31c-.89.6-1.99,1.32-3.31,2.16-1.32.84-2.56,1.51-3.73,2-1.63.65-3.31,1.14-5.06,1.45s-3.66.47-5.75.47c-4.91,0-9.02-1.35-12.33-4.04-3.31-2.69-4.97-6.13-4.97-10.32,0-3.34.84-6.08,2.53-8.2,1.69-2.12,4.08-3.79,7.18-5.02,3.07-1.22,6.87-2.09,11.41-2.61,4.54-.52,9.25-.9,14.12-1.14v-.25c0-2.53-1.17-4.28-3.5-5.24-2.33-.96-5.77-1.45-10.3-1.45-2.73,0-5.64.43-8.74,1.28-3.1.86-5.32,1.52-6.67,1.98h-1.52v-11.05c1.75-.41,4.59-.89,8.53-1.45,3.94-.56,7.89-.84,11.84-.84,9.41,0,16.21,1.28,20.4,3.85,4.18,2.57,6.28,6.6,6.28,12.09v31.16h-16.42v-4.85ZM-2184.45-750.44v-9.51c-2.24.16-4.66.39-7.27.67-2.61.28-4.58.62-5.93,1-1.66.46-2.92,1.13-3.79,2.01s-1.31,2.04-1.31,3.48c0,.95.09,1.72.28,2.32.19.6.64,1.16,1.38,1.71.71.54,1.55.94,2.53,1.2s2.51.39,4.6.39c1.65,0,3.33-.3,5.04-.89,1.7-.6,3.2-1.38,4.48-2.36Z"/>
    <path class="st1" d="M-2107.1-761.99c0,7.21-2.09,13.08-6.27,17.62-4.18,4.54-9.4,6.81-15.66,6.81-2.68,0-5.04-.27-7.07-.82-2.03-.54-3.96-1.33-5.78-2.37l-.64,2.28h-14.84v-63.47h15.48v22.43c2.37-1.79,4.79-3.25,7.26-4.36,2.47-1.11,5.32-1.67,8.55-1.67,6.08,0,10.76,2.09,14.05,6.26,3.28,4.18,4.93,9.93,4.93,17.27ZM-2123.02-761.68c0-4.07-.73-7.21-2.18-9.41-1.45-2.2-4.05-3.3-7.79-3.3-1.46,0-2.95.21-4.49.63-1.54.42-3.01,1.02-4.41,1.81v22.97c1.11.38,2.17.64,3.17.77,1,.14,2.2.2,3.59.2,4.08,0,7.12-1.14,9.11-3.42,2-2.28,3-5.7,3-10.26Z"/>
    <path class="st1" d="M-2061.44-729.53h-45.17v-11.43h45.17v11.43Z"/>
    <path class="st1" d="M-2280.55-729.53h-45.17v-11.43h45.17v11.43Z"/>
    <path class="st1" d="M-2559.32-836.54v154.96s-5.71,0-5.71,0v-154.96s5.71,0,5.71,0Z"/>
    <path class="st1" d="M-1996.93-780.02c0,2.72-.57,5.38-1.71,7.97-1.14,2.6-2.77,4.78-4.89,6.55-2.9,2.39-6.14,4.2-9.71,5.42-3.57,1.22-8.01,1.84-13.33,1.84h-11.69v19.78h-18.78v-60.73h30.91c4.63,0,8.53.33,11.71,1,3.18.67,5.99,1.67,8.44,3,2.93,1.61,5.18,3.66,6.73,6.16,1.55,2.5,2.32,5.51,2.32,9.01ZM-2016.35-779.67c0-1.71-.55-3.18-1.66-4.41-1.11-1.24-2.4-2.1-3.86-2.58-1.96-.65-3.87-1.01-5.72-1.08-1.86-.07-4.34-.1-7.43-.1h-3.23v18.15h5.38c3.2,0,5.83-.16,7.9-.49,2.07-.32,3.81-.98,5.21-1.95,1.21-.87,2.08-1.91,2.62-3.11.54-1.21.81-2.68.81-4.42Z"/>
    <path class="st1" d="M-1934.29-787.44h-24.54v48.99h-15.66v-48.99h-21.33v-11.75h61.54v11.75Z"/>
  </g>
  <g>
    <path class="st1" d="M-2104.62-338.68s6.44-17.59,24.69-27.08l111.96-55.98s20.7-9.47,20.7-35.01v-23.56l-141.36,71.78s-15.99,9.25-15.99,33.47v36.39Z"/>
    <path class="st1" d="M-2052.63-365.05v49.54l49.71-24.77v15.91s.33,19.16-20.48,28.57l-54.33,27.58s-8.75-10.9-5.61-30.05c0,0-28.4,19.65-12.88,43.27,0,0,8.59,14.7,25.6,18.66,0,0-32.2,7.43-54.5-30.55,0,0-15.03-23.78,12.28-57.47,0,0,9.69-12.55,37.93-29.23l22.29-11.45Z"/>
    <path class="st1" d="M-2038.98-372.48v27.08l60.61-30.39v45.74s.66,23.61-22.79,35.34l-68.53,35.17s23.28,25.43,50.2,11.89l52.84-27.91s19.38-9.91,19.38-39.63v-104.2l-91.71,46.9Z"/>
  </g>
  <g>
    <path class="st1" d="M-2908.45-246.1s12.63-34.49,48.41-53.1l219.54-109.77s40.58-18.56,40.58-68.65v-46.2l-277.18,140.75s-31.36,18.13-31.36,65.62v71.34Z"/>
    <path class="st1" d="M-2806.5-297.8v97.14l97.46-48.57v31.19s.65,37.56-40.15,56.02l-106.53,54.08s-17.16-21.37-11.01-58.93c0,0-55.69,38.53-25.26,84.84,0,0,16.84,28.82,50.19,36.59,0,0-63.14,14.57-106.86-59.9,0,0-29.47-46.63,24.07-112.68,0,0,19-24.61,74.37-57.31l43.71-22.45Z"/>
    <path class="st1" d="M-2779.74-312.37v53.1l118.84-59.58v89.69s1.3,46.3-44.68,69.29l-134.38,68.97s45.66,49.87,98.44,23.31l103.62-54.72s37.99-19.43,37.99-77.71v-204.32l-179.82,91.96Z"/>
  </g>
  <g>
    <path class="st1" d="M-2283.49-143.29c0,2.67-.5,5.16-1.51,7.49s-2.5,4.29-4.48,5.89c-2.1,1.71-4.63,3.04-7.59,3.98-2.96.94-6.63,1.41-11,1.41-2.96,0-5.75-.1-8.37-.3-2.62-.2-12.19-1.74-14.17-2.11l.13-13.46,6.74,2.56c1.38.49,4.38,1.3,5.88,1.71,2.01.54,3.72.44,6.05.44,3.02,0,5.41-.67,7.04-1.43,1.62-.76,2.78-1.82,3.47-3.19.66-1.33,1.04-2.8,1.12-4.39s.13-3.63.13-6.1v-24.21h-14.71v-11.18h31.27v42.91Z"/>
    <path class="st1" d="M-2218.72-153.94c1.66,1.14,2.98,2.47,3.96,4s1.47,3.55,1.47,6.08c0,2.85-.7,5.52-2.11,7.99-1.4,2.48-3.56,4.59-6.47,6.36-2.84,1.71-6.18,3.02-10.02,3.94-3.84.91-8.5,1.37-13.98,1.37-6.26,0-11.63-.39-16.11-1.18-4.48-.79-8.13-1.67-10.94-2.65v-13.34h1.98c2.91,1.41,6.39,2.64,10.43,3.67,4.04,1.03,7.74,1.55,11.09,1.55,1.96,0,4.09-.13,6.39-.39,2.3-.26,4.25-.82,5.84-1.69,1.25-.68,2.25-1.5,2.99-2.47s1.12-2.36,1.12-4.18-.51-3.13-1.52-4.1c-1.02-.97-2.35-1.65-4.01-2.06-1.66-.43-3.65-.67-5.99-.71-2.33-.04-4.5-.06-6.5-.06h-9.82v-10.85h9.98c2.64,0,4.97-.07,7-.2,2.03-.14,3.76-.45,5.18-.94,1.49-.52,2.61-1.2,3.35-2.06.74-.86,1.12-2.11,1.12-3.77,0-1.22-.39-2.21-1.17-2.96-.78-.75-1.76-1.34-2.94-1.77-1.32-.49-2.88-.82-4.67-.98-1.79-.16-3.33-.24-4.62-.24-3.18,0-6.63.44-10.35,1.33-3.72.88-7.33,2.16-10.81,3.81h-1.88v-13.17c2.77-.9,6.55-1.76,11.32-2.59s9.61-1.24,14.52-1.24,8.95.33,12.54,1c3.59.67,6.55,1.56,8.88,2.67,2.77,1.33,4.84,2.95,6.19,4.85s2.03,4.13,2.03,6.69c0,3.37-1.3,6.38-3.91,9.03-2.61,2.65-6.04,4.34-10.3,5.08v.57c1.73.19,3.55.57,5.48,1.14,1.93.57,3.69,1.4,5.28,2.49Z"/>
    <path class="st1" d="M-2137.35-155.77c0,5.66-1.29,10.72-3.88,15.19-2.58,4.47-5.85,7.91-9.79,10.3-2.96,1.79-6.21,3.05-9.75,3.75-3.54.71-7.72,1.06-12.56,1.06h-28.69v-60.73h29.31c4.95,0,9.22.42,12.81,1.24,3.59.83,6.61,2.01,9.06,3.53,4.19,2.56,7.48,6,9.89,10.34,2.41,4.34,3.61,9.44,3.61,15.32ZM-2153.69-155.89c0-4-.73-7.42-2.18-10.26-1.46-2.84-3.76-5.06-6.91-6.67-1.61-.79-3.24-1.33-4.92-1.61s-4.19-.43-7.57-.43h-11.09v38.01h3.96c3.72,0,13.59-.17,15.33-.51,1.74-.34,3.44-.96,5.1-1.86,2.86-1.63,4.95-3.81,6.28-6.55s2-6.11,2-10.14Z"/>
    <path class="st1" d="M-2033.8-125.47h-55.01v-60.73h15.66v48.99h39.35v11.75Z"/>
    <path class="st1" d="M-1996.08-130.32c-.89.6-1.99,1.32-3.31,2.16-1.32.84-2.56,1.51-3.73,2-1.63.65-3.31,1.14-5.06,1.45s-3.66.47-5.75.47c-4.91,0-9.02-1.35-12.33-4.04-3.31-2.69-4.97-6.13-4.97-10.32,0-3.34.84-6.08,2.53-8.2,1.69-2.12,4.08-3.79,7.18-5.02,3.07-1.22,6.87-2.09,11.41-2.61,4.54-.52,9.25-.9,14.12-1.14v-.25c0-2.53-1.17-4.28-3.5-5.24-2.33-.96-5.77-1.45-10.3-1.45-2.73,0-5.64.43-8.74,1.28-3.1.86-5.32,1.52-6.67,1.98h-1.52v-11.05c1.75-.41,4.59-.89,8.53-1.45,3.94-.56,7.89-.84,11.84-.84,9.41,0,16.21,1.28,20.4,3.85,4.18,2.57,6.28,6.6,6.28,12.09v31.16h-16.42v-4.85ZM-1996.08-137.45v-9.51c-2.24.16-4.66.39-7.27.67-2.61.28-4.58.62-5.93,1-1.66.46-2.92,1.13-3.79,2.01s-1.31,2.04-1.31,3.48c0,.95.09,1.72.28,2.32.19.6.64,1.16,1.38,1.71.71.54,1.55.94,2.53,1.2s2.51.39,4.6.39c1.65,0,3.33-.3,5.04-.89,1.7-.6,3.2-1.38,4.48-2.36Z"/>
    <path class="st1" d="M-1918.73-149c0,7.21-2.09,13.08-6.27,17.62-4.18,4.54-9.4,6.81-15.66,6.81-2.68,0-5.04-.27-7.07-.82-2.03-.54-3.96-1.33-5.78-2.37l-.64,2.28h-14.84v-63.47h15.48v22.43c2.37-1.79,4.79-3.25,7.26-4.36,2.47-1.11,5.32-1.67,8.55-1.67,6.08,0,10.76,2.09,14.05,6.26,3.28,4.18,4.93,9.93,4.93,17.27ZM-1934.64-148.69c0-4.07-.73-7.21-2.18-9.41-1.45-2.2-4.05-3.3-7.79-3.3-1.46,0-2.95.21-4.49.63-1.54.42-3.01,1.02-4.41,1.81v22.97c1.11.38,2.17.64,3.17.77,1,.14,2.2.2,3.59.2,4.08,0,7.12-1.14,9.11-3.42,2-2.28,3-5.7,3-10.26Z"/>
    <path class="st1" d="M-1873.07-116.54h-45.17v-11.43h45.17v11.43Z"/>
    <path class="st1" d="M-2092.18-116.54h-45.17v-11.43h45.17v11.43Z"/>
    <path class="st1" d="M-1808.55-167.03c0,2.72-.57,5.38-1.71,7.97-1.14,2.6-2.77,4.78-4.89,6.55-2.9,2.39-6.14,4.2-9.71,5.42-3.57,1.22-8.01,1.84-13.33,1.84h-11.69v19.78h-18.78v-60.73h30.91c4.63,0,8.53.33,11.71,1,3.18.67,5.99,1.67,8.44,3,2.93,1.61,5.18,3.66,6.73,6.16,1.55,2.5,2.32,5.51,2.32,9.01ZM-1827.97-166.68c0-1.71-.55-3.18-1.66-4.41-1.11-1.24-2.4-2.1-3.86-2.58-1.96-.65-3.87-1.01-5.72-1.08-1.86-.07-4.34-.1-7.43-.1h-3.23v18.15h5.38c3.2,0,5.83-.16,7.9-.49,2.07-.32,3.81-.98,5.21-1.95,1.21-.87,2.08-1.91,2.62-3.11.54-1.21.81-2.68.81-4.42Z"/>
    <path class="st1" d="M-1745.91-174.45h-24.54v48.99h-15.66v-48.99h-21.33v-11.75h61.54v11.75Z"/>
  </g>
  <g>
    <g>
      <path class="st2" d="M253.35-345.43s6.44-17.59,24.69-27.08l111.96-55.98s20.7-9.47,20.7-35.01v-23.56l-141.36,71.78s-15.99,9.25-15.99,33.47v36.39Z"/>
      <path class="st2" d="M305.34-371.79v49.54l49.71-24.77v15.91s.33,19.16-20.48,28.57l-54.33,27.58s-8.75-10.9-5.61-30.05c0,0-28.4,19.65-12.88,43.27,0,0,8.59,14.7,25.6,18.66,0,0-32.2,7.43-54.5-30.55,0,0-15.03-23.78,12.28-57.47,0,0,9.69-12.55,37.93-29.23l22.29-11.45Z"/>
      <path class="st2" d="M318.99-379.22v27.08l60.61-30.39v45.74s.66,23.61-22.79,35.34l-68.53,35.17s23.28,25.43,50.2,11.89l52.84-27.91s19.38-9.91,19.38-39.63v-104.2l-91.71,46.9Z"/>
    </g>
    <g>
      <path class="st2" d="M74.48-150.04c0,2.67-.5,5.16-1.51,7.49s-2.5,4.29-4.48,5.89c-2.1,1.71-4.63,3.04-7.59,3.98-2.96.94-6.63,1.41-11,1.41-2.96,0-5.75-.1-8.37-.3-2.62-.2-12.19-1.74-14.17-2.11l.13-13.46,6.74,2.56c1.38.49,4.38,1.3,5.88,1.71,2.01.54,3.72.44,6.05.44,3.02,0,5.41-.67,7.04-1.43,1.62-.76,2.78-1.82,3.47-3.19.66-1.33,1.04-2.8,1.12-4.39s.13-3.63.13-6.1v-24.21h-14.71v-11.18h31.27v42.91Z"/>
      <path class="st2" d="M139.25-160.68c1.66,1.14,2.98,2.47,3.96,4s1.47,3.55,1.47,6.08c0,2.85-.7,5.52-2.11,7.99-1.4,2.48-3.56,4.59-6.47,6.36-2.84,1.71-6.18,3.02-10.02,3.94-3.84.91-8.5,1.37-13.98,1.37-6.26,0-11.63-.39-16.11-1.18-4.48-.79-8.13-1.67-10.94-2.65v-13.34h1.98c2.91,1.41,6.39,2.64,10.43,3.67,4.04,1.03,7.74,1.55,11.09,1.55,1.96,0,4.09-.13,6.39-.39,2.3-.26,4.25-.82,5.84-1.69,1.25-.68,2.25-1.5,2.99-2.47s1.12-2.36,1.12-4.18-.51-3.13-1.52-4.1c-1.02-.97-2.35-1.65-4.01-2.06-1.66-.43-3.65-.67-5.99-.71-2.33-.04-4.5-.06-6.5-.06h-9.82v-10.85h9.98c2.64,0,4.97-.07,7-.2,2.03-.14,3.76-.45,5.18-.94,1.49-.52,2.61-1.2,3.35-2.06.74-.86,1.12-2.11,1.12-3.77,0-1.22-.39-2.21-1.17-2.96-.78-.75-1.76-1.34-2.94-1.77-1.32-.49-2.88-.82-4.67-.98-1.79-.16-3.33-.24-4.62-.24-3.18,0-6.63.44-10.35,1.33-3.72.88-7.33,2.16-10.81,3.81h-1.88v-13.17c2.77-.9,6.55-1.76,11.32-2.59,4.77-.83,9.61-1.24,14.52-1.24s8.95.33,12.54,1c3.59.67,6.55,1.56,8.88,2.67,2.77,1.33,4.84,2.95,6.19,4.85s2.03,4.13,2.03,6.69c0,3.37-1.3,6.38-3.91,9.03-2.61,2.65-6.04,4.34-10.3,5.08v.57c1.73.19,3.55.57,5.48,1.14,1.93.57,3.69,1.4,5.28,2.49Z"/>
      <path class="st2" d="M220.61-162.52c0,5.66-1.29,10.72-3.88,15.19-2.58,4.47-5.85,7.91-9.79,10.3-2.96,1.79-6.21,3.05-9.75,3.75-3.54.71-7.72,1.06-12.56,1.06h-28.69v-60.73h29.31c4.95,0,9.22.42,12.81,1.24,3.59.83,6.61,2.01,9.06,3.53,4.19,2.56,7.48,6,9.89,10.34,2.41,4.34,3.61,9.44,3.61,15.32ZM204.27-162.64c0-4-.73-7.42-2.18-10.26-1.46-2.84-3.76-5.06-6.91-6.67-1.61-.79-3.24-1.33-4.92-1.61s-4.19-.43-7.57-.43h-11.09v38.01h3.96c3.72,0,13.59-.17,15.33-.51,1.74-.34,3.44-.96,5.1-1.86,2.86-1.63,4.95-3.81,6.28-6.55s2-6.11,2-10.14Z"/>
      <path class="st2" d="M324.16-132.21h-55.01v-60.73h15.66v48.99h39.35v11.75Z"/>
      <path class="st2" d="M361.89-137.07c-.89.6-1.99,1.32-3.31,2.16-1.32.84-2.56,1.51-3.73,2-1.63.65-3.31,1.14-5.06,1.45s-3.66.47-5.75.47c-4.91,0-9.02-1.35-12.33-4.04-3.31-2.69-4.97-6.13-4.97-10.32,0-3.34.84-6.08,2.53-8.2,1.69-2.12,4.08-3.79,7.18-5.02,3.07-1.22,6.87-2.09,11.41-2.61,4.54-.52,9.25-.9,14.12-1.14v-.25c0-2.53-1.17-4.28-3.5-5.24-2.33-.96-5.77-1.45-10.3-1.45-2.73,0-5.64.43-8.74,1.28-3.1.86-5.32,1.52-6.67,1.98h-1.52v-11.05c1.75-.41,4.59-.89,8.53-1.45,3.94-.56,7.89-.84,11.84-.84,9.41,0,16.21,1.28,20.4,3.85,4.18,2.57,6.28,6.6,6.28,12.09v31.16h-16.42v-4.85ZM361.89-144.19v-9.51c-2.24.16-4.66.39-7.27.67-2.61.28-4.58.62-5.93,1-1.66.46-2.92,1.13-3.79,2.01s-1.31,2.04-1.31,3.48c0,.95.09,1.72.28,2.32.19.6.64,1.16,1.38,1.71.71.54,1.55.94,2.53,1.2s2.51.39,4.6.39c1.65,0,3.33-.3,5.04-.89,1.7-.6,3.2-1.38,4.48-2.36Z"/>
      <path class="st2" d="M439.24-155.75c0,7.21-2.09,13.08-6.27,17.62-4.18,4.54-9.4,6.81-15.66,6.81-2.68,0-5.04-.27-7.07-.82-2.03-.54-3.96-1.33-5.78-2.37l-.64,2.28h-14.84v-63.47h15.48v22.43c2.37-1.79,4.79-3.25,7.26-4.36,2.47-1.11,5.32-1.67,8.55-1.67,6.08,0,10.76,2.09,14.05,6.26,3.28,4.18,4.93,9.93,4.93,17.27ZM423.33-155.44c0-4.07-.73-7.21-2.18-9.41-1.45-2.2-4.05-3.3-7.79-3.3-1.46,0-2.95.21-4.49.63-1.54.42-3.01,1.02-4.41,1.81v22.97c1.11.38,2.17.64,3.17.77,1,.14,2.2.2,3.59.2,4.08,0,7.12-1.14,9.11-3.42,2-2.28,3-5.7,3-10.26Z"/>
      <path class="st2" d="M484.9-123.29h-45.17v-11.43h45.17v11.43Z"/>
      <path class="st2" d="M265.79-123.29h-45.17v-11.43h45.17v11.43Z"/>
      <path class="st2" d="M549.41-173.77c0,2.72-.57,5.38-1.71,7.97-1.14,2.6-2.77,4.78-4.89,6.55-2.9,2.39-6.14,4.2-9.71,5.42-3.57,1.22-8.01,1.84-13.33,1.84h-11.69v19.78h-18.78v-60.73h30.91c4.63,0,8.53.33,11.71,1,3.18.67,5.99,1.67,8.44,3,2.93,1.61,5.18,3.66,6.73,6.16,1.55,2.5,2.32,5.51,2.32,9.01ZM529.99-173.43c0-1.71-.55-3.18-1.66-4.41-1.11-1.24-2.4-2.1-3.86-2.58-1.96-.65-3.87-1.01-5.72-1.08-1.86-.07-4.34-.1-7.43-.1h-3.23v18.15h5.38c3.2,0,5.83-.16,7.9-.49,2.07-.32,3.81-.98,5.21-1.95,1.21-.87,2.08-1.91,2.62-3.11.54-1.21.81-2.68.81-4.42Z"/>
      <path class="st2" d="M612.05-181.2h-24.54v48.99h-15.66v-48.99h-21.33v-11.75h61.54v11.75Z"/>
    </g>
  </g>
  <g>
    <g>
      <path class="st1" d="M-736.16-345.43s6.44-17.59,24.69-27.08l111.96-55.98s20.7-9.47,20.7-35.01v-23.56l-141.36,71.78s-15.99,9.25-15.99,33.47v36.39Z"/>
      <path class="st1" d="M-684.16-371.79v49.54l49.71-24.77v15.91s.33,19.16-20.48,28.57l-54.33,27.58s-8.75-10.9-5.61-30.05c0,0-28.4,19.65-12.88,43.27,0,0,8.59,14.7,25.6,18.66,0,0-32.2,7.43-54.5-30.55,0,0-15.03-23.78,12.28-57.47,0,0,9.69-12.55,37.93-29.23l22.29-11.45Z"/>
      <path class="st1" d="M-670.51-379.22v27.08l60.61-30.39v45.74s.66,23.61-22.79,35.34l-68.53,35.17s23.28,25.43,50.2,11.89l52.84-27.91s19.38-9.91,19.38-39.63v-104.2l-91.71,46.9Z"/>
    </g>
    <g>
      <path class="st1" d="M-915.03-150.04c0,2.67-.5,5.16-1.51,7.49s-2.5,4.29-4.48,5.89c-2.1,1.71-4.63,3.04-7.59,3.98-2.96.94-6.63,1.41-11,1.41-2.96,0-5.75-.1-8.37-.3-2.62-.2-12.19-1.74-14.17-2.11l.13-13.46,6.74,2.56c1.38.49,4.38,1.3,5.88,1.71,2.01.54,3.72.44,6.05.44,3.02,0,5.41-.67,7.04-1.43,1.62-.76,2.78-1.82,3.47-3.19.66-1.33,1.04-2.8,1.12-4.39s.13-3.63.13-6.1v-24.21h-14.71v-11.18h31.27v42.91Z"/>
      <path class="st1" d="M-850.25-160.68c1.66,1.14,2.98,2.47,3.96,4s1.47,3.55,1.47,6.08c0,2.85-.7,5.52-2.11,7.99-1.4,2.48-3.56,4.59-6.47,6.36-2.84,1.71-6.18,3.02-10.02,3.94-3.84.91-8.5,1.37-13.98,1.37-6.26,0-11.63-.39-16.11-1.18-4.48-.79-8.13-1.67-10.94-2.65v-13.34h1.98c2.91,1.41,6.39,2.64,10.43,3.67,4.04,1.03,7.74,1.55,11.09,1.55,1.96,0,4.09-.13,6.39-.39,2.3-.26,4.25-.82,5.84-1.69,1.25-.68,2.25-1.5,2.99-2.47s1.12-2.36,1.12-4.18-.51-3.13-1.52-4.1c-1.02-.97-2.35-1.65-4.01-2.06-1.66-.43-3.65-.67-5.99-.71-2.33-.04-4.5-.06-6.5-.06h-9.82v-10.85h9.98c2.64,0,4.97-.07,7-.2,2.03-.14,3.76-.45,5.18-.94,1.49-.52,2.61-1.2,3.35-2.06.74-.86,1.12-2.11,1.12-3.77,0-1.22-.39-2.21-1.17-2.96-.78-.75-1.76-1.34-2.94-1.77-1.32-.49-2.88-.82-4.67-.98-1.79-.16-3.33-.24-4.62-.24-3.18,0-6.63.44-10.35,1.33-3.72.88-7.33,2.16-10.81,3.81h-1.88v-13.17c2.77-.9,6.55-1.76,11.32-2.59s9.61-1.24,14.52-1.24,8.95.33,12.54,1c3.59.67,6.55,1.56,8.88,2.67,2.77,1.33,4.84,2.95,6.19,4.85s2.03,4.13,2.03,6.69c0,3.37-1.3,6.38-3.91,9.03-2.61,2.65-6.04,4.34-10.3,5.08v.57c1.73.19,3.55.57,5.48,1.14,1.93.57,3.69,1.4,5.28,2.49Z"/>
      <path class="st1" d="M-768.89-162.52c0,5.66-1.29,10.72-3.88,15.19-2.58,4.47-5.85,7.91-9.79,10.3-2.96,1.79-6.21,3.05-9.75,3.75-3.54.71-7.72,1.06-12.56,1.06h-28.69v-60.73h29.31c4.95,0,9.22.42,12.81,1.24,3.59.83,6.61,2.01,9.06,3.53,4.19,2.56,7.48,6,9.89,10.34,2.41,4.34,3.61,9.44,3.61,15.32ZM-785.23-162.64c0-4-.73-7.42-2.18-10.26-1.46-2.84-3.76-5.06-6.91-6.67-1.61-.79-3.24-1.33-4.92-1.61s-4.19-.43-7.57-.43h-11.09v38.01h3.96c3.72,0,13.59-.17,15.33-.51,1.74-.34,3.44-.96,5.1-1.86,2.86-1.63,4.95-3.81,6.28-6.55s2-6.11,2-10.14Z"/>
      <path class="st1" d="M-665.34-132.21h-55.01v-60.73h15.66v48.99h39.35v11.75Z"/>
      <path class="st1" d="M-627.61-137.07c-.89.6-1.99,1.32-3.31,2.16-1.32.84-2.56,1.51-3.73,2-1.63.65-3.31,1.14-5.06,1.45s-3.66.47-5.75.47c-4.91,0-9.02-1.35-12.33-4.04-3.31-2.69-4.97-6.13-4.97-10.32,0-3.34.84-6.08,2.53-8.2,1.69-2.12,4.08-3.79,7.18-5.02,3.07-1.22,6.87-2.09,11.41-2.61,4.54-.52,9.25-.9,14.12-1.14v-.25c0-2.53-1.17-4.28-3.5-5.24-2.33-.96-5.77-1.45-10.3-1.45-2.73,0-5.64.43-8.74,1.28-3.1.86-5.32,1.52-6.67,1.98h-1.52v-11.05c1.75-.41,4.59-.89,8.53-1.45,3.94-.56,7.89-.84,11.84-.84,9.41,0,16.21,1.28,20.4,3.85,4.18,2.57,6.28,6.6,6.28,12.09v31.16h-16.42v-4.85ZM-627.61-144.19v-9.51c-2.24.16-4.66.39-7.27.67-2.61.28-4.58.62-5.93,1-1.66.46-2.92,1.13-3.79,2.01s-1.31,2.04-1.31,3.48c0,.95.09,1.72.28,2.32.19.6.64,1.16,1.38,1.71.71.54,1.55.94,2.53,1.2s2.51.39,4.6.39c1.65,0,3.33-.3,5.04-.89,1.7-.6,3.2-1.38,4.48-2.36Z"/>
      <path class="st1" d="M-550.26-155.75c0,7.21-2.09,13.08-6.27,17.62-4.18,4.54-9.4,6.81-15.66,6.81-2.68,0-5.04-.27-7.07-.82-2.03-.54-3.96-1.33-5.78-2.37l-.64,2.28h-14.84v-63.47h15.48v22.43c2.37-1.79,4.79-3.25,7.26-4.36,2.47-1.11,5.32-1.67,8.55-1.67,6.08,0,10.76,2.09,14.05,6.26,3.28,4.18,4.93,9.93,4.93,17.27ZM-566.18-155.44c0-4.07-.73-7.21-2.18-9.41-1.45-2.2-4.05-3.3-7.79-3.3-1.46,0-2.95.21-4.49.63-1.54.42-3.01,1.02-4.41,1.81v22.97c1.11.38,2.17.64,3.17.77,1,.14,2.2.2,3.59.2,4.08,0,7.12-1.14,9.11-3.42,2-2.28,3-5.7,3-10.26Z"/>
      <path class="st1" d="M-504.6-123.29h-45.17v-11.43h45.17v11.43Z"/>
      <path class="st1" d="M-723.72-123.29h-45.17v-11.43h45.17v11.43Z"/>
      <path class="st1" d="M-440.09-173.77c0,2.72-.57,5.38-1.71,7.97-1.14,2.6-2.77,4.78-4.89,6.55-2.9,2.39-6.14,4.2-9.71,5.42-3.57,1.22-8.01,1.84-13.33,1.84h-11.69v19.78h-18.78v-60.73h30.91c4.63,0,8.53.33,11.71,1,3.18.67,5.99,1.67,8.44,3,2.93,1.61,5.18,3.66,6.73,6.16,1.55,2.5,2.32,5.51,2.32,9.01ZM-459.51-173.43c0-1.71-.55-3.18-1.66-4.41-1.11-1.24-2.4-2.1-3.86-2.58-1.96-.65-3.87-1.01-5.72-1.08-1.86-.07-4.34-.1-7.43-.1h-3.23v18.15h5.38c3.2,0,5.83-.16,7.9-.49,2.07-.32,3.81-.98,5.21-1.95,1.21-.87,2.08-1.91,2.62-3.11.54-1.21.81-2.68.81-4.42Z"/>
      <path class="st1" d="M-377.45-181.2h-24.54v48.99h-15.66v-48.99h-21.33v-11.75h61.54v11.75Z"/>
    </g>
  </g>
  <g>
    <path class="st1" d="M-781.28,247.86s10.82-29.55,41.48-45.5l188.11-94.05s34.77-15.91,34.77-58.82V9.91l-237.49,120.59s-26.87,15.54-26.87,56.23v61.13Z"/>
    <path class="st1" d="M-693.94,203.56v83.23l83.51-41.62v26.73s.55,32.18-34.4,48l-91.28,46.33s-14.7-18.31-9.43-50.49c0,0-47.72,33.02-21.64,72.69,0,0,14.43,24.69,43,31.35,0,0-54.1,12.48-91.56-51.33,0,0-25.25-39.95,20.62-96.55,0,0,16.28-21.09,63.72-49.11l37.45-19.24Z"/>
    <path class="st1" d="M-671,191.08v45.5l101.82-51.05v76.85s1.11,39.67-38.29,59.37l-115.14,59.1s39.12,42.73,84.34,19.98l88.78-46.89s32.55-16.65,32.55-66.59V112.28l-154.07,78.79Z"/>
  </g>
  <g>
    <path class="st2" d="M208.22,247.86s10.82-29.55,41.48-45.5l188.11-94.05s34.77-15.91,34.77-58.82V9.91l-237.49,120.59s-26.87,15.54-26.87,56.23v61.13Z"/>
    <path class="st2" d="M295.57,203.56v83.23l83.51-41.62v26.73s.55,32.18-34.4,48l-91.28,46.33s-14.7-18.31-9.43-50.49c0,0-47.72,33.02-21.64,72.69,0,0,14.43,24.69,43,31.35,0,0-54.1,12.48-91.56-51.33,0,0-25.25-39.95,20.62-96.55,0,0,16.28-21.09,63.72-49.11l37.45-19.24Z"/>
    <path class="st2" d="M318.5,191.08v45.5l101.82-51.05v76.85s1.11,39.67-38.29,59.37l-115.14,59.1s39.12,42.73,84.34,19.98l88.78-46.89s32.55-16.65,32.55-66.59V112.28l-154.07,78.79Z"/>
  </g>
</svg>